<?xml version="1.0"?>
<svg xmlns="http://www.w3.org/2000/svg" xmlns:xlink="http://www.w3.org/1999/xlink" version="1.1" width="500px" height="500px" viewBox="0 0 500 500"><defs><rect id="block" width="23.8095238095" height="23.8095238095" fill="#000000" fill-opacity="1"/></defs><rect x="0" y="0" width="500" height="500" fill="#ffffff" fill-opacity="1"/><use x="0.0000000000" y="0.0000000000" xlink:href="#block"/><use x="23.8095238095" y="0.0000000000" xlink:href="#block"/><use x="47.6190476190" y="0.0000000000" xlink:href="#block"/><use x="71.4285714286" y="0.0000000000" xlink:href="#block"/><use x="95.2380952381" y="0.0000000000" xlink:href="#block"/><use x="119.0476190476" y="0.0000000000" xlink:href="#block"/><use x="142.8571428571" y="0.0000000000" xlink:href="#block"/><use x="190.4761904762" y="0.0000000000" xlink:href="#block"/><use x="261.9047619048" y="0.0000000000" xlink:href="#block"/><use x="333.3333333333" y="0.0000000000" xlink:href="#block"/><use x="357.1428571429" y="0.0000000000" xlink:href="#block"/><use x="380.9523809524" y="0.0000000000" xlink:href="#block"/><use x="404.7619047619" y="0.0000000000" xlink:href="#block"/><use x="428.5714285714" y="0.0000000000" xlink:href="#block"/><use x="452.3809523810" y="0.0000000000" xlink:href="#block"/><use x="476.1904761905" y="0.0000000000" xlink:href="#block"/><use x="0.0000000000" y="23.8095238095" xlink:href="#block"/><use x="142.8571428571" y="23.8095238095" xlink:href="#block"/><use x="238.0952380952" y="23.8095238095" xlink:href="#block"/><use x="285.7142857143" y="23.8095238095" xlink:href="#block"/><use x="333.3333333333" y="23.8095238095" xlink:href="#block"/><use x="476.1904761905" y="23.8095238095" xlink:href="#block"/><use x="0.0000000000" y="47.6190476190" xlink:href="#block"/><use x="47.6190476190" y="47.6190476190" xlink:href="#block"/><use x="71.4285714286" y="47.6190476190" xlink:href="#block"/><use x="95.2380952381" y="47.6190476190" xlink:href="#block"/><use x="142.8571428571" y="47.6190476190" xlink:href="#block"/><use x="214.2857142857" y="47.6190476190" xlink:href="#block"/><use x="285.7142857143" y="47.6190476190" xlink:href="#block"/><use x="333.3333333333" y="47.6190476190" xlink:href="#block"/><use x="380.9523809524" y="47.6190476190" xlink:href="#block"/><use x="404.7619047619" y="47.6190476190" xlink:href="#block"/><use x="428.5714285714" y="47.6190476190" xlink:href="#block"/><use x="476.1904761905" y="47.6190476190" xlink:href="#block"/><use x="0.0000000000" y="71.4285714286" xlink:href="#block"/><use x="47.6190476190" y="71.4285714286" xlink:href="#block"/><use x="71.4285714286" y="71.4285714286" xlink:href="#block"/><use x="95.2380952381" y="71.4285714286" xlink:href="#block"/><use x="142.8571428571" y="71.4285714286" xlink:href="#block"/><use x="190.4761904762" y="71.4285714286" xlink:href="#block"/><use x="214.2857142857" y="71.4285714286" xlink:href="#block"/><use x="238.0952380952" y="71.4285714286" xlink:href="#block"/><use x="285.7142857143" y="71.4285714286" xlink:href="#block"/><use x="333.3333333333" y="71.4285714286" xlink:href="#block"/><use x="380.9523809524" y="71.4285714286" xlink:href="#block"/><use x="404.7619047619" y="71.4285714286" xlink:href="#block"/><use x="428.5714285714" y="71.4285714286" xlink:href="#block"/><use x="476.1904761905" y="71.4285714286" xlink:href="#block"/><use x="0.0000000000" y="95.2380952381" xlink:href="#block"/><use x="47.6190476190" y="95.2380952381" xlink:href="#block"/><use x="71.4285714286" y="95.2380952381" xlink:href="#block"/><use x="95.2380952381" y="95.2380952381" xlink:href="#block"/><use x="142.8571428571" y="95.2380952381" xlink:href="#block"/><use x="214.2857142857" y="95.2380952381" xlink:href="#block"/><use x="238.0952380952" y="95.2380952381" xlink:href="#block"/><use x="261.9047619048" y="95.2380952381" xlink:href="#block"/><use x="333.3333333333" y="95.2380952381" xlink:href="#block"/><use x="380.9523809524" y="95.2380952381" xlink:href="#block"/><use x="404.7619047619" y="95.2380952381" xlink:href="#block"/><use x="428.5714285714" y="95.2380952381" xlink:href="#block"/><use x="476.1904761905" y="95.2380952381" xlink:href="#block"/><use x="0.0000000000" y="119.0476190476" xlink:href="#block"/><use x="142.8571428571" y="119.0476190476" xlink:href="#block"/><use x="238.0952380952" y="119.0476190476" xlink:href="#block"/><use x="285.7142857143" y="119.0476190476" xlink:href="#block"/><use x="333.3333333333" y="119.0476190476" xlink:href="#block"/><use x="476.1904761905" y="119.0476190476" xlink:href="#block"/><use x="0.0000000000" y="142.8571428571" xlink:href="#block"/><use x="23.8095238095" y="142.8571428571" xlink:href="#block"/><use x="47.6190476190" y="142.8571428571" xlink:href="#block"/><use x="71.4285714286" y="142.8571428571" xlink:href="#block"/><use x="95.2380952381" y="142.8571428571" xlink:href="#block"/><use x="119.0476190476" y="142.8571428571" xlink:href="#block"/><use x="142.8571428571" y="142.8571428571" xlink:href="#block"/><use x="190.4761904762" y="142.8571428571" xlink:href="#block"/><use x="238.0952380952" y="142.8571428571" xlink:href="#block"/><use x="285.7142857143" y="142.8571428571" xlink:href="#block"/><use x="333.3333333333" y="142.8571428571" xlink:href="#block"/><use x="357.1428571429" y="142.8571428571" xlink:href="#block"/><use x="380.9523809524" y="142.8571428571" xlink:href="#block"/><use x="404.7619047619" y="142.8571428571" xlink:href="#block"/><use x="428.5714285714" y="142.8571428571" xlink:href="#block"/><use x="452.3809523810" y="142.8571428571" xlink:href="#block"/><use x="476.1904761905" y="142.8571428571" xlink:href="#block"/><use x="47.6190476190" y="190.4761904762" xlink:href="#block"/><use x="95.2380952381" y="190.4761904762" xlink:href="#block"/><use x="119.0476190476" y="190.4761904762" xlink:href="#block"/><use x="142.8571428571" y="190.4761904762" xlink:href="#block"/><use x="190.4761904762" y="190.4761904762" xlink:href="#block"/><use x="261.9047619048" y="190.4761904762" xlink:href="#block"/><use x="309.5238095238" y="190.4761904762" xlink:href="#block"/><use x="404.7619047619" y="190.4761904762" xlink:href="#block"/><use x="476.1904761905" y="190.4761904762" xlink:href="#block"/><use x="0.0000000000" y="214.2857142857" xlink:href="#block"/><use x="23.8095238095" y="214.2857142857" xlink:href="#block"/><use x="47.6190476190" y="214.2857142857" xlink:href="#block"/><use x="71.4285714286" y="214.2857142857" xlink:href="#block"/><use x="166.6666666667" y="214.2857142857" xlink:href="#block"/><use x="190.4761904762" y="214.2857142857" xlink:href="#block"/><use x="261.9047619048" y="214.2857142857" xlink:href="#block"/><use x="285.7142857143" y="214.2857142857" xlink:href="#block"/><use x="309.5238095238" y="214.2857142857" xlink:href="#block"/><use x="333.3333333333" y="214.2857142857" xlink:href="#block"/><use x="428.5714285714" y="214.2857142857" xlink:href="#block"/><use x="452.3809523810" y="214.2857142857" xlink:href="#block"/><use x="0.0000000000" y="238.0952380952" xlink:href="#block"/><use x="23.8095238095" y="238.0952380952" xlink:href="#block"/><use x="47.6190476190" y="238.0952380952" xlink:href="#block"/><use x="95.2380952381" y="238.0952380952" xlink:href="#block"/><use x="119.0476190476" y="238.0952380952" xlink:href="#block"/><use x="142.8571428571" y="238.0952380952" xlink:href="#block"/><use x="190.4761904762" y="238.0952380952" xlink:href="#block"/><use x="214.2857142857" y="238.0952380952" xlink:href="#block"/><use x="285.7142857143" y="238.0952380952" xlink:href="#block"/><use x="333.3333333333" y="238.0952380952" xlink:href="#block"/><use x="380.9523809524" y="238.0952380952" xlink:href="#block"/><use x="476.1904761905" y="238.0952380952" xlink:href="#block"/><use x="47.6190476190" y="261.9047619048" xlink:href="#block"/><use x="95.2380952381" y="261.9047619048" xlink:href="#block"/><use x="214.2857142857" y="261.9047619048" xlink:href="#block"/><use x="238.0952380952" y="261.9047619048" xlink:href="#block"/><use x="261.9047619048" y="261.9047619048" xlink:href="#block"/><use x="309.5238095238" y="261.9047619048" xlink:href="#block"/><use x="333.3333333333" y="261.9047619048" xlink:href="#block"/><use x="428.5714285714" y="261.9047619048" xlink:href="#block"/><use x="452.3809523810" y="261.9047619048" xlink:href="#block"/><use x="0.0000000000" y="285.7142857143" xlink:href="#block"/><use x="47.6190476190" y="285.7142857143" xlink:href="#block"/><use x="71.4285714286" y="285.7142857143" xlink:href="#block"/><use x="119.0476190476" y="285.7142857143" xlink:href="#block"/><use x="142.8571428571" y="285.7142857143" xlink:href="#block"/><use x="166.6666666667" y="285.7142857143" xlink:href="#block"/><use x="190.4761904762" y="285.7142857143" xlink:href="#block"/><use x="238.0952380952" y="285.7142857143" xlink:href="#block"/><use x="380.9523809524" y="285.7142857143" xlink:href="#block"/><use x="428.5714285714" y="285.7142857143" xlink:href="#block"/><use x="452.3809523810" y="285.7142857143" xlink:href="#block"/><use x="476.1904761905" y="285.7142857143" xlink:href="#block"/><use x="190.4761904762" y="309.5238095238" xlink:href="#block"/><use x="214.2857142857" y="309.5238095238" xlink:href="#block"/><use x="261.9047619048" y="309.5238095238" xlink:href="#block"/><use x="285.7142857143" y="309.5238095238" xlink:href="#block"/><use x="309.5238095238" y="309.5238095238" xlink:href="#block"/><use x="333.3333333333" y="309.5238095238" xlink:href="#block"/><use x="357.1428571429" y="309.5238095238" xlink:href="#block"/><use x="404.7619047619" y="309.5238095238" xlink:href="#block"/><use x="452.3809523810" y="309.5238095238" xlink:href="#block"/><use x="0.0000000000" y="333.3333333333" xlink:href="#block"/><use x="23.8095238095" y="333.3333333333" xlink:href="#block"/><use x="47.6190476190" y="333.3333333333" xlink:href="#block"/><use x="71.4285714286" y="333.3333333333" xlink:href="#block"/><use x="95.2380952381" y="333.3333333333" xlink:href="#block"/><use x="119.0476190476" y="333.3333333333" xlink:href="#block"/><use x="142.8571428571" y="333.3333333333" xlink:href="#block"/><use x="333.3333333333" y="333.3333333333" xlink:href="#block"/><use x="357.1428571429" y="333.3333333333" xlink:href="#block"/><use x="404.7619047619" y="333.3333333333" xlink:href="#block"/><use x="428.5714285714" y="333.3333333333" xlink:href="#block"/><use x="452.3809523810" y="333.3333333333" xlink:href="#block"/><use x="476.1904761905" y="333.3333333333" xlink:href="#block"/><use x="0.0000000000" y="357.1428571429" xlink:href="#block"/><use x="142.8571428571" y="357.1428571429" xlink:href="#block"/><use x="190.4761904762" y="357.1428571429" xlink:href="#block"/><use x="261.9047619048" y="357.1428571429" xlink:href="#block"/><use x="357.1428571429" y="357.1428571429" xlink:href="#block"/><use x="380.9523809524" y="357.1428571429" xlink:href="#block"/><use x="404.7619047619" y="357.1428571429" xlink:href="#block"/><use x="452.3809523810" y="357.1428571429" xlink:href="#block"/><use x="0.0000000000" y="380.9523809524" xlink:href="#block"/><use x="47.6190476190" y="380.9523809524" xlink:href="#block"/><use x="71.4285714286" y="380.9523809524" xlink:href="#block"/><use x="95.2380952381" y="380.9523809524" xlink:href="#block"/><use x="142.8571428571" y="380.9523809524" xlink:href="#block"/><use x="190.4761904762" y="380.9523809524" xlink:href="#block"/><use x="214.2857142857" y="380.9523809524" xlink:href="#block"/><use x="238.0952380952" y="380.9523809524" xlink:href="#block"/><use x="261.9047619048" y="380.9523809524" xlink:href="#block"/><use x="333.3333333333" y="380.9523809524" xlink:href="#block"/><use x="357.1428571429" y="380.9523809524" xlink:href="#block"/><use x="404.7619047619" y="380.9523809524" xlink:href="#block"/><use x="428.5714285714" y="380.9523809524" xlink:href="#block"/><use x="476.1904761905" y="380.9523809524" xlink:href="#block"/><use x="0.0000000000" y="404.7619047619" xlink:href="#block"/><use x="47.6190476190" y="404.7619047619" xlink:href="#block"/><use x="71.4285714286" y="404.7619047619" xlink:href="#block"/><use x="95.2380952381" y="404.7619047619" xlink:href="#block"/><use x="142.8571428571" y="404.7619047619" xlink:href="#block"/><use x="214.2857142857" y="404.7619047619" xlink:href="#block"/><use x="238.0952380952" y="404.7619047619" xlink:href="#block"/><use x="261.9047619048" y="404.7619047619" xlink:href="#block"/><use x="285.7142857143" y="404.7619047619" xlink:href="#block"/><use x="333.3333333333" y="404.7619047619" xlink:href="#block"/><use x="428.5714285714" y="404.7619047619" xlink:href="#block"/><use x="452.3809523810" y="404.7619047619" xlink:href="#block"/><use x="0.0000000000" y="428.5714285714" xlink:href="#block"/><use x="47.6190476190" y="428.5714285714" xlink:href="#block"/><use x="71.4285714286" y="428.5714285714" xlink:href="#block"/><use x="95.2380952381" y="428.5714285714" xlink:href="#block"/><use x="142.8571428571" y="428.5714285714" xlink:href="#block"/><use x="190.4761904762" y="428.5714285714" xlink:href="#block"/><use x="261.9047619048" y="428.5714285714" xlink:href="#block"/><use x="285.7142857143" y="428.5714285714" xlink:href="#block"/><use x="333.3333333333" y="428.5714285714" xlink:href="#block"/><use x="380.9523809524" y="428.5714285714" xlink:href="#block"/><use x="476.1904761905" y="428.5714285714" xlink:href="#block"/><use x="0.0000000000" y="452.3809523810" xlink:href="#block"/><use x="142.8571428571" y="452.3809523810" xlink:href="#block"/><use x="261.9047619048" y="452.3809523810" xlink:href="#block"/><use x="285.7142857143" y="452.3809523810" xlink:href="#block"/><use x="333.3333333333" y="452.3809523810" xlink:href="#block"/><use x="428.5714285714" y="452.3809523810" xlink:href="#block"/><use x="0.0000000000" y="476.1904761905" xlink:href="#block"/><use x="23.8095238095" y="476.1904761905" xlink:href="#block"/><use x="47.6190476190" y="476.1904761905" xlink:href="#block"/><use x="71.4285714286" y="476.1904761905" xlink:href="#block"/><use x="95.2380952381" y="476.1904761905" xlink:href="#block"/><use x="119.0476190476" y="476.1904761905" xlink:href="#block"/><use x="142.8571428571" y="476.1904761905" xlink:href="#block"/><use x="214.2857142857" y="476.1904761905" xlink:href="#block"/><use x="238.0952380952" y="476.1904761905" xlink:href="#block"/><use x="285.7142857143" y="476.1904761905" xlink:href="#block"/><use x="309.5238095238" y="476.1904761905" xlink:href="#block"/><use x="333.3333333333" y="476.1904761905" xlink:href="#block"/><use x="380.9523809524" y="476.1904761905" xlink:href="#block"/><use x="428.5714285714" y="476.1904761905" xlink:href="#block"/><use x="476.1904761905" y="476.1904761905" xlink:href="#block"/></svg>
